<svg width="137" height="24" viewBox="0 0 137 24" fill="none" xmlns="http://www.w3.org/2000/svg">
    <path fill-rule="evenodd" clip-rule="evenodd" d="M2.4 0H21.6C22.2365 0 22.8469 0.252855 23.297 0.702942C23.7471 1.15303 24 1.76348 24 2.4V21.6C24 22.2365 23.7471 22.847 23.297 23.2971C22.8469 23.7471 22.2365 24 21.6 24H2.4C1.76348 24 1.15299 23.7471 0.702905 23.2971C0.252818 22.847 0 22.2365 0 21.6V2.4C0 1.76348 0.252818 1.15303 0.702905 0.702942C1.15299 0.252855 1.76348 0 2.4 0ZM14.0502 20.6598C14.4438 20.95 14.9363 21.0723 15.42 21C15.9213 21.0215 16.4202 20.9185 16.872 20.7L16.5839 18.912C16.4014 18.9885 16.2059 19.0292 16.008 19.032C15.9445 19.044 15.8794 19.044 15.816 19.032C15.6132 19.0107 15.4268 18.9109 15.2967 18.7539C15.1666 18.5969 15.1032 18.3952 15.12 18.192C15.3383 15.9711 15.7193 13.7691 16.26 11.604H13.992L13.692 13.356C13.5448 12.8011 13.2223 12.3086 12.7726 11.9518C12.3228 11.595 11.7698 11.393 11.1959 11.376C9.15595 11.376 7.33198 13.284 7.33198 16.272C7.33198 19.26 8.72394 21 10.8119 21C11.341 20.9975 11.8583 20.8436 12.3027 20.5565C12.7471 20.2695 13.1001 19.8612 13.32 19.38V19.452C13.394 19.9354 13.6566 20.3697 14.0502 20.6598ZM20.16 4.26C20.3199 4.37776 20.5134 4.44087 20.7119 4.44V4.464C20.8894 4.46399 21.063 4.4115 21.2107 4.31312C21.3585 4.21475 21.4738 4.07489 21.5423 3.91113C21.6107 3.74738 21.6292 3.56705 21.5955 3.3928C21.5617 3.21855 21.4772 3.05816 21.3525 2.93183C21.2278 2.8055 21.0686 2.71886 20.8948 2.68279C20.721 2.64672 20.5404 2.66283 20.3758 2.72911C20.2111 2.7954 20.0698 2.90888 19.9695 3.0553C19.8692 3.20172 19.8143 3.37454 19.8119 3.55201C19.8003 3.61951 19.8003 3.6885 19.8119 3.75601L15.456 6.504C15.2771 6.37302 15.0564 6.31174 14.8356 6.33162C14.6147 6.3515 14.4087 6.45119 14.256 6.61201L10.032 4.932C10.0229 4.70369 9.92733 4.48738 9.76465 4.32693C9.60197 4.16648 9.38442 4.07391 9.15601 4.068C8.9181 4.06141 8.68701 4.14809 8.51213 4.30952C8.33725 4.47094 8.23241 4.69433 8.21997 4.932C8.21417 5.0119 8.21417 5.0921 8.21997 5.172L3.828 8.22001C3.67042 8.10927 3.48034 8.05436 3.28799 8.064C3.16979 8.06711 3.05337 8.09349 2.94536 8.14162C2.83736 8.18975 2.73982 8.25867 2.65847 8.34448C2.57712 8.43029 2.51349 8.5313 2.47119 8.64172C2.42889 8.75214 2.40874 8.86981 2.41194 8.98801C2.41823 9.22779 2.51878 9.45543 2.69172 9.62164C2.86467 9.78785 3.09612 9.87925 3.33596 9.87601C3.57682 9.86664 3.80449 9.76351 3.97039 9.58865C4.13628 9.41378 4.22726 9.18101 4.22395 8.94V8.71201L8.57996 5.65201C8.75979 5.78531 8.98338 5.84577 9.20588 5.82129C9.42839 5.79681 9.6334 5.68921 9.77996 5.52001L13.992 7.2C14.0062 7.42769 14.103 7.64235 14.2643 7.80366C14.4256 7.96497 14.6403 8.06183 14.8679 8.07601C14.9871 8.08082 15.1061 8.06188 15.2179 8.02031C15.3297 7.97874 15.4322 7.91535 15.5193 7.83384C15.6064 7.75233 15.6764 7.65432 15.7252 7.5455C15.7741 7.43669 15.8009 7.31925 15.804 7.2C15.8106 7.13617 15.8106 7.07183 15.804 7.008L20.16 4.26ZM9.56396 16.236C9.56396 14.268 10.4879 13.356 11.4119 13.356C12.1439 13.356 12.7559 13.872 13.1399 15.192L13.032 16.812C12.948 18.024 12.24 19.02 11.22 19.02C10.2 19.02 9.56396 18.204 9.56396 16.236Z" fill="#DD2626"/>
    <path d="M51.4719 6.91799C51.4719 6.64185 51.248 6.41799 50.9719 6.41799H49.2287C48.9525 6.41799 48.7287 6.19413 48.7287 5.91799V2.90039C48.7287 2.62425 48.5048 2.40039 48.2287 2.40039H47.0039C46.7277 2.40039 46.5039 2.62425 46.5039 2.90039V11.7716C46.5039 12.0477 46.7277 12.2716 47.0039 12.2716H48.2287C48.5048 12.2716 48.7287 12.0477 48.7287 11.7716V8.75399C48.7287 8.47785 48.9525 8.25399 49.2287 8.25399H50.9719C51.248 8.25399 51.4719 8.03013 51.4719 7.75399V6.91799ZM43.9767 7.43319C43.9767 4.86279 41.8383 3.04839 38.8791 3.04839C35.9199 3.04839 33.7383 4.86279 33.7383 7.43319C33.7383 10.0036 35.9199 11.818 38.8791 11.818C41.8383 11.818 43.9767 10.0036 43.9767 7.43319ZM35.8983 7.43319C35.8983 5.87799 37.1511 4.86279 38.8791 4.86279C40.6071 4.86279 41.8167 5.87799 41.8167 7.43319C41.8167 8.98839 40.6071 10.0252 38.8791 10.0252C37.1511 10.0252 35.8983 8.98839 35.8983 7.43319ZM38.8607 19.918C38.5845 19.918 38.3607 19.6941 38.3607 19.418V18.6468C38.3607 18.3707 38.5845 18.1468 38.8607 18.1468H48.2287C48.5048 18.1468 48.7287 17.9229 48.7287 17.6468V13.614C48.7287 13.3378 48.5048 13.114 48.2287 13.114H36.6359C36.3597 13.114 36.1359 13.3378 36.1359 13.614V14.3636C36.1359 14.6397 36.3597 14.8636 36.6359 14.8636H46.0255C46.3016 14.8636 46.5255 15.0875 46.5255 15.3636V16.0268C46.5255 16.3029 46.3016 16.5268 46.0255 16.5268H36.6791C36.4029 16.5268 36.1791 16.7506 36.1791 17.0268V21.1892C36.1791 21.4653 36.4029 21.6892 36.6791 21.6892H48.8767C49.1528 21.6892 49.3767 21.4653 49.3767 21.1892V20.418C49.3767 20.1418 49.1528 19.918 48.8767 19.918H38.8607Z" fill="#DD2626"/>
    <path d="M72.743 11.8828C73.0191 11.8828 73.243 11.6589 73.243 11.3828V10.5468C73.243 10.2706 73.0191 10.0468 72.743 10.0468H70.6974C70.4213 10.0468 70.1974 9.82293 70.1974 9.54679V2.92199C70.1974 2.64585 69.9735 2.42199 69.6974 2.42199H68.4726C68.1964 2.42199 67.9726 2.64585 67.9726 2.92199V21.4484C67.9726 21.7245 68.1964 21.9484 68.4726 21.9484H69.6974C69.9735 21.9484 70.1974 21.7245 70.1974 21.4484V12.3828C70.1974 12.1066 70.4213 11.8828 70.6974 11.8828H72.743ZM64.7821 15.1146C64.489 15.1426 64.2358 14.9118 64.2358 14.6173V6.68039C64.2358 6.40425 64.4597 6.18039 64.7358 6.18039H65.6366C65.9127 6.18039 66.1366 5.95653 66.1366 5.68039V4.88759C66.1366 4.61145 65.9127 4.38759 65.6366 4.38759H55.8582C55.5821 4.38759 55.3582 4.61145 55.3582 4.88759V5.68039C55.3582 5.95653 55.5821 6.18039 55.8582 6.18039H56.759C57.0351 6.18039 57.259 6.40425 57.259 6.68039V14.9252C57.259 15.2013 57.0351 15.4252 56.759 15.4252H55.4303C55.1286 15.4252 54.8957 15.6902 54.9344 15.9894L55.0426 16.8254C55.0748 17.0746 55.2864 17.2613 55.5377 17.2609C58.7445 17.2565 62.8452 17.1937 66.5934 16.6009C66.8488 16.5605 67.0282 16.3294 67.0079 16.0716L66.9554 15.4069C66.9329 15.1227 66.6778 14.9149 66.3946 14.9474C65.8681 15.0078 65.3322 15.062 64.7821 15.1146ZM59.9315 15.369C59.6505 15.3764 59.419 15.1504 59.419 14.8693V6.68039C59.419 6.40425 59.6429 6.18039 59.919 6.18039H61.5758C61.8519 6.18039 62.0758 6.40425 62.0758 6.68039V14.8092C62.0758 15.0712 61.8736 15.2891 61.612 15.3041C61.0505 15.3363 60.4849 15.3543 59.9315 15.369Z" fill="#DD2626"/>
    <path d="M92.2746 13.7052C92.4895 13.7555 92.7088 13.6501 92.812 13.455L93.2898 12.5525C93.4483 12.2533 93.2693 11.886 92.9412 11.8025C89.4086 10.9037 86.6333 8.07149 86.6333 5.14359V4.17479C86.6333 3.89865 86.4094 3.67479 86.1333 3.67479H84.7789C84.5028 3.67479 84.2789 3.89865 84.2789 4.17479V5.14359C84.2789 8.01226 81.5002 10.9001 77.9645 11.8035C77.6383 11.8869 77.459 12.2506 77.6137 12.5496L78.08 13.4502C78.1822 13.6477 78.403 13.7552 78.6195 13.7043C81.2696 13.0822 83.5834 11.4531 84.9377 9.33647C85.1639 8.98302 85.7267 8.98302 85.9529 9.33647C87.3078 11.454 89.6231 13.0836 92.2746 13.7052ZM94.3661 18.0852C94.3661 17.809 94.1422 17.5852 93.8661 17.5852H77.1973C76.9212 17.5852 76.6973 17.809 76.6973 18.0852V18.9212C76.6973 19.1973 76.9212 19.4212 77.1973 19.4212H93.8661C94.1422 19.4212 94.3661 19.1973 94.3661 18.9212V18.0852Z" fill="#DD2626"/>
    <path d="M115.036 2.90039C115.036 2.62425 114.812 2.40039 114.536 2.40039H113.419C113.143 2.40039 112.919 2.62425 112.919 2.90039V21.4484C112.919 21.7245 113.143 21.9484 113.419 21.9484H114.536C114.812 21.9484 115.036 21.7245 115.036 21.4484V2.90039ZM109.639 2.81079C109.363 2.81079 109.139 3.03465 109.139 3.31079V14.4284C109.139 14.7045 108.915 14.9284 108.639 14.9284H106.269C105.993 14.9284 105.769 15.1522 105.769 15.4284V16.1348C105.769 16.4109 105.993 16.6348 106.269 16.6348H108.639C108.915 16.6348 109.139 16.8586 109.139 17.1348V20.4548C109.139 20.7309 109.363 20.9548 109.639 20.9548H110.712C110.989 20.9548 111.212 20.7309 111.212 20.4548V3.31079C111.212 3.03465 110.989 2.81079 110.712 2.81079H109.639ZM107.746 13.1336C107.998 13.0878 108.17 12.8556 108.147 12.6008L108.086 11.952C108.059 11.6675 107.8 11.4617 107.516 11.4886C107.447 11.4951 107.378 11.5014 107.309 11.5077C106.967 11.5387 106.683 11.2297 106.743 10.8915C107.13 8.70274 107.13 7.0078 107.13 5.59719V4.67159C107.13 4.39545 106.906 4.17159 106.63 4.17159H99.7892C99.5131 4.17159 99.2892 4.39545 99.2892 4.67159V5.46439C99.2892 5.74053 99.5131 5.96439 99.7892 5.96439H104.556C104.833 5.96439 105.058 6.18824 105.059 6.46437C105.061 6.75038 105.06 7.04015 105.045 7.34913C105.032 7.59641 104.83 7.78829 104.583 7.80112L99.3324 8.07364C99.0335 8.08916 98.8151 8.36206 98.8655 8.65712L98.9958 9.42065C99.0396 9.67691 99.2724 9.8569 99.5314 9.83467L104.269 9.4281C104.578 9.40153 104.837 9.66079 104.798 9.96893C104.739 10.4233 104.658 10.8985 104.554 11.39C104.508 11.606 104.322 11.7631 104.102 11.7763C102.134 11.8943 100.161 11.9388 98.5977 11.9616C98.2987 11.966 98.0701 12.2297 98.1085 12.5263L98.2176 13.3694C98.2499 13.6186 98.462 13.8054 98.7134 13.804C99.5314 13.7994 100.45 13.7815 101.444 13.7416C101.729 13.7301 101.968 13.9574 101.968 14.2428V19.8932C101.968 20.1693 102.191 20.3932 102.468 20.3932H103.584C103.861 20.3932 104.084 20.1693 104.084 19.8932V14.0378C104.084 13.7736 104.29 13.5553 104.553 13.5355C105.642 13.4535 106.723 13.3196 107.746 13.1336Z" fill="#DD2626"/>
    <path d="M136.094 2.90039C136.094 2.62425 135.87 2.40039 135.594 2.40039H134.348C134.071 2.40039 133.848 2.62425 133.848 2.90039V9.17959C133.848 9.45573 133.624 9.67959 133.348 9.67959H130.508C130.247 9.67959 130.031 9.47794 129.999 9.21903C129.588 5.92135 127.642 3.84759 125.143 3.84759C122.27 3.84759 120.218 6.52599 120.218 10.7164C120.218 14.95 122.27 17.6068 125.143 17.6068C127.688 17.6068 129.658 15.4659 130.028 11.9627C130.056 11.7002 130.273 11.494 130.537 11.494H133.348C133.624 11.494 133.848 11.7178 133.848 11.994V21.47C133.848 21.7461 134.071 21.97 134.348 21.97H135.594C135.87 21.97 136.094 21.7461 136.094 21.47V2.90039ZM125.143 15.6196C123.48 15.6196 122.335 13.8484 122.335 10.7164C122.335 7.67079 123.48 5.85639 125.143 5.85639C126.871 5.85639 127.972 7.67079 127.972 10.7164C127.972 13.8484 126.871 15.6196 125.143 15.6196Z" fill="#DD2626"/>
</svg>